<?xml version="1.0"?>
<svg fill="#000000" xmlns="http://www.w3.org/2000/svg" viewBox="0 0 24 24" width="48px" height="48px">
    <path d="M12 2C6.477 2 2 6.477 2 12s4.477 10 10 10 10-4.477 10-10S17.523 2 12 2zm5.263 13.849c-.043.165-.109.317-.199.457-.225.26-.56.42-.932.42h-7.664c-.372 0-.707-.16-.932-.42-.09-.14-.156-.292-.199-.457-.036-.136-.053-.277-.053-.42 0-3.351 2.71-6.061 6.062-6.061 3.351 0 6.061 2.71 6.061 6.061 0 .143-.017.284-.053.42z"/>
    <path d="M12 6.9c-2.977 0-5.1 2.124-5.1 5.1s2.124 5.1 5.1 5.1 5.1-2.124 5.1-5.1-2.123-5.1-5.1-5.1zm0 8.625c-1.728 0-3.128-1.4-3.128-3.125s1.4-3.125 3.128-3.125 3.128 1.4 3.128 3.125-1.4 3.125-3.128 3.125z"/>
    <path d="M19.304 3H4.696C3.628 3 2.762 3.895 2.65 4.949l-.759 9.107c-.051.617.179 1.215.6 1.636s1.02.651 1.637.6h14.608c.617.05 1.215-.179 1.637-.6.422-.421.65-1.019.6-1.636l-.76-9.107c-.112-1.054-.977-1.949-2.045-1.949zM19.043 12.9H4.957c-.524 0-.997-.29-1.239-.752l-.697-8.4h17.96l-.697 8.4c-.243.462-.716.752-1.24.752z"/>
</svg>
